<svg xmlns="http://www.w3.org/2000/svg" viewBox="0 0 1000 990"><mask id="mask"><path d="M1000,0H0V718.31H179.2c38.38,142.38,167.45,247.1,320.8,247.1s282.42-104.72,320.8-247.1H1000Z" fill="white"></path></mask><g mask="url(#mask)"><circle cx="500" cy="630.1601" r="332.441995" fill="#85c5e5"></circle><path d="M610,758.72c90.76,0,72,114.24,72.87,241.28H610Z" fill="#CC734C"></path><path d="M632.74,831.87,610,870l11.38,130h31.76C653.91,819.73,632.74,831.87,632.74,831.87Z" fill="#B56241"></path><path d="M233.25,500c0-147.32,119.43-266.75,266.75-266.75S766.75,352.68,766.75,500A266.22,266.22,0,0,1,668.1,707.12q-8.21,6.68-16.94,12.69C591,758,515,758,446.39,751.89c-6.66-1-13.3-2.26-19.89-3.71-26.33-5.8-51.82-14.75-75.37-27.8Q342.4,715,334.2,708.76a199.59,199.59,0,0,1-15.8-13.38q-7.14-6.63-13.79-13.78A265.86,265.86,0,0,1,233.25,500Z" fill="#CC734C"></path><path d="M269.61,634.48c.7,1.2,1.39,2.4,2.11,3.58.43.72.88,1.42,1.33,2.14.66,1.07,1.32,2.14,2,3.19.48.76,1,1.5,1.46,2.24.66,1,1.32,2,2,3,.51.76,1,1.52,1.56,2.28.66,1,1.32,1.92,2,2.88.54.77,1.1,1.53,1.65,2.3s1.34,1.85,2,2.77,1.15,1.53,1.73,2.29,1.37,1.8,2.07,2.7,1.19,1.51,1.79,2.26,1.41,1.76,2.12,2.63,1.23,1.49,1.85,2.23,1.44,1.72,2.17,2.57,1.27,1.47,1.91,2.2l2.22,2.5c.65.73,1.31,1.44,2,2.16.86.94,1.73,1.87,2.6,2.79l1.21,1.28c1.29,1.34,2.59,2.68,3.91,4l.26.27c1.29,1.28,2.6,2.55,3.91,3.81l1.58,1.5c.95.89,1.9,1.78,2.86,2.66l1.16,1.06c1,.94,2.09,1.86,3.14,2.78q4.9,4.27,10,8.19,8.19,6.24,16.93,11.62c23.55,13,49,22,75.37,27.8,6.59,1.45,13.23,2.7,19.89,3.71,42.1,3.75,87,5.18,129.28-3.08C508.45,729,185.59,612.74,388.8,257.48h0c-2.72,1.25-5.4,2.54-8.06,3.88l-.59.29c-1.22.61-2.44,1.24-3.65,1.88l-1,.53c-3.76,2-7.48,4.07-11.13,6.23l-.9.53c-1.16.69-2.31,1.39-3.46,2.1l-.87.54q-5.36,3.35-10.55,6.93l-1.08.75c-1.09.76-2.16,1.52-3.23,2.29l-.66.47q-3.27,2.39-6.46,4.84l-.62.48c-1,.78-2,1.58-3,2.39l-1.17.94c-1,.81-2,1.62-3,2.45l0,0c-2.11,1.75-4.19,3.55-6.24,5.37l-1.14,1-2.69,2.45L318,305q-4.28,4-8.37,8.17l-1.38,1.41c-.79.82-1.58,1.64-2.36,2.47-.46.49-.92,1-1.37,1.48q-2.06,2.2-4.06,4.46c-.45.51-.91,1-1.36,1.54-.71.81-1.41,1.63-2.11,2.45l-1.51,1.79c-.68.81-1.36,1.62-2,2.44-.54.66-1.08,1.33-1.61,2-1.07,1.33-2.12,2.66-3.16,4-.54.7-1.08,1.4-1.61,2.11s-1.2,1.59-1.79,2.4-1.07,1.45-1.59,2.18-1.13,1.55-1.68,2.33q-1.42,2-2.8,4.05c-.5.73-1,1.48-1.49,2.22s-1.1,1.66-1.64,2.5l-1.49,2.31-1.68,2.71c-.43.69-.86,1.38-1.28,2.07-.89,1.46-1.75,2.93-2.61,4.4l-1.22,2.16c-.54.95-1.08,1.91-1.61,2.87-.4.73-.8,1.46-1.19,2.19-.64,1.19-1.27,2.39-1.9,3.59l-1.2,2.34c-.64,1.28-1.28,2.55-1.91,3.84-.33.69-.67,1.39-1,2.09-.52,1.09-1,2.19-1.53,3.29-.31.66-.61,1.32-.91,2q-1.11,2.47-2.17,5c-.22.52-.43,1.05-.65,1.57-.53,1.27-1.05,2.54-1.56,3.82-.27.67-.53,1.34-.79,2-.5,1.26-1,2.53-1.45,3.8-.21.55-.42,1.1-.62,1.65q-.94,2.63-1.85,5.26l-.56,1.7q-.66,2-1.29,4l-.6,1.91c-.47,1.54-.93,3.08-1.37,4.63-.1.33-.2.66-.29,1q-.78,2.76-1.5,5.54c-.16.59-.3,1.19-.45,1.78-.35,1.39-.69,2.78-1,4.18l-.42,1.75c-.43,1.9-.85,3.8-1.24,5.71l-.15.77q-.51,2.55-1,5.1c-.11.61-.21,1.21-.32,1.82-.26,1.49-.51,3-.74,4.5-.08.51-.17,1-.24,1.52-.3,1.95-.57,3.91-.83,5.88l-.15,1.3c-.2,1.59-.38,3.19-.55,4.79-.06.6-.13,1.2-.19,1.81-.16,1.68-.31,3.37-.45,5.06,0,.35-.06.69-.08,1q-.22,3-.39,6.05c0,.53,0,1.07-.07,1.6q-.1,2.36-.18,4.71c0,.59,0,1.18,0,1.77,0,2.05-.08,4.11-.08,6.17,0,0,0,.07,0,.1,0,2.22,0,4.42.08,6.62,0,.76.06,1.52.08,2.28.05,1.47.1,2.94.17,4.41,0,.89.11,1.77.16,2.66.08,1.33.15,2.66.25,4,.07,1,.16,1.89.24,2.83.11,1.26.21,2.52.34,3.77.09,1,.21,1.94.31,2.91.14,1.21.27,2.43.42,3.64.12,1,.26,2,.39,2.95.16,1.18.32,2.37.5,3.55.15,1,.31,2,.47,3,.18,1.16.37,2.33.57,3.49.18,1,.36,2,.55,3,.21,1.15.43,2.3.65,3.44s.41,2,.62,3c.24,1.14.48,2.27.74,3.4s.44,2,.68,2.93c.26,1.13.54,2.25.82,3.36s.49,1.95.74,2.91c.3,1.12.6,2.23.91,3.34.26,1,.53,1.92.81,2.87.32,1.11.65,2.21,1,3.31s.58,1.89.88,2.84.7,2.19,1.06,3.28.62,1.87.94,2.8c.38,1.09.76,2.18,1.15,3.27.33.91.65,1.83,1,2.74l1.24,3.27c.35.89.69,1.79,1,2.68.44,1.09.89,2.19,1.34,3.28.36.86.71,1.73,1.08,2.59.47,1.12,1,2.22,1.45,3.33.37.82.73,1.65,1.1,2.47.52,1.16,1.07,2.3,1.6,3.44l1.08,2.3c.61,1.26,1.24,2.5,1.87,3.75.32.63.62,1.27.95,1.9q2.88,5.61,6,11.07C268.88,633.26,269.25,633.87,269.61,634.48Z" fill="#B56241"></path><path d="M233.25,500c0-147.32,119.43-266.75,266.75-266.75S766.75,352.68,766.75,500A266.22,266.22,0,0,1,668.1,707.12q-8.21,6.68-16.94,12.69C591,758,515,758,446.39,751.89c-6.66-1-13.3-2.26-19.89-3.71-26.33-5.8-51.82-14.75-75.37-27.8Q342.4,715,334.2,708.76a199.59,199.59,0,0,1-15.8-13.38q-7.14-6.63-13.79-13.78A265.86,265.86,0,0,1,233.25,500Z" fill="none" stroke="#592d3d" stroke-miterlimit="10" stroke-width="12px"></path><path d="M386.12,758.72c-90.77,0-72,114.24-72.87,241.28h72.87Z" fill="#CC734C"></path><path d="M367.23,831.87,390,870l-11.39,130H346.88C346.07,819.73,367.23,831.87,367.23,831.87Z" fill="#B56241"></path><path d="M619.47,1070H380.53a13.28,13.28,0,0,1-13.27-13.28V772a13.28,13.28,0,0,1,13.27-13.28H613.76c13.09,0,19,7.66,19,19.88v278.08A13.28,13.28,0,0,1,619.47,1070Z" fill="#CC734C"></path><path d="M629.05,766.62a19.33,19.33,0,0,1-2.51-4,17.25,17.25,0,0,0-8.28-3.51,28.88,28.88,0,0,0-4.5-.34H380.53A13.28,13.28,0,0,0,367.26,772c29,10.42,83.29,16.24,132.74,16.24C563.06,788.24,604.38,778.89,629.05,766.62Z" fill="#B56241"></path><path d="M610,758.72c90.76,0,72,114.24,72.87,241.28H632.74" fill="none" stroke="#592d3d" stroke-linecap="square" stroke-miterlimit="10" stroke-width="12px"></path><path d="M386.12,758.72c-90.77,0-72,114.24-72.87,241.28h50.07" fill="none" stroke="#592d3d" stroke-linecap="square" stroke-miterlimit="10" stroke-width="12px"></path><path d="M380.53,758.82l233.23-.1" fill="none" stroke="#592d3d" stroke-miterlimit="10" stroke-width="12px"></path><path d="M380.53,1070H497.15C388,1070,396.24,838.82,367.26,838.82v217.86A13.28,13.28,0,0,0,380.53,1070Z" fill="#B56241"></path><path d="M361.26,860.85c-.19-3.67-.11-7.34.05-11s.47-7.35.86-11c.2-1.84.4-3.67.65-5.51s.49-3.67.85-5.51a44.18,44.18,0,0,1,3.59-11,44.18,44.18,0,0,1,3.59,11c.36,1.84.62,3.67.85,5.51s.45,3.67.65,5.51c.38,3.67.68,7.34.85,11s.25,7.34.06,11Z" fill="#592d3d"></path><path d="M632.74,870v8c.26,34,.26,69,0,102.75,0,2.87,0,5.72,0,8.53v67.41A13.28,13.28,0,0,1,619.47,1070H380.53a13.28,13.28,0,0,1-13.27-13.28V998.52c0-2.51,0-5.07,0-7.65-.25-34.87-.25-69.87,0-105.3V860.85" fill="none" stroke="#592d3d" stroke-miterlimit="10" stroke-width="12px"></path><path d="M626.74,870c-.19-4.17-.1-8.35.06-12.53s.47-8.35.85-12.53c.2-2.09.41-4.18.65-6.27s.49-4.17.85-6.26a55.09,55.09,0,0,1,3.59-12.53,55.09,55.09,0,0,1,3.59,12.53c.36,2.09.62,4.18.85,6.26s.45,4.18.65,6.27c.38,4.18.69,8.35.85,12.53s.25,8.36.06,12.53Z" fill="#592d3d"></path><path d="M502.07,878.86A69.31,69.31,0,1,1,371,847.39" fill="none" stroke="#592d3d" stroke-miterlimit="10" stroke-width="12px"></path><path d="M371,847.39a69.68,69.68,0,0,1,15-19.67" fill="#CC734C"></path><path d="M365.65,844.66a27,27,0,0,1,3.38-5.84,37.22,37.22,0,0,1,4.53-5c.84-.76,1.69-1.5,2.58-2.19a21.1,21.1,0,0,1,2.81-1.92,15,15,0,0,1,7-2,25,25,0,0,1-1.75,6.81c-.39,1-.83,1.88-1.29,2.77l-1.3,2.67c-.85,1.76-1.69,3.49-2.55,5.19a54.51,54.51,0,0,1-2.76,5Z" fill="#592d3d"></path><path d="M489.33,838.82a69,69,0,0,1,12.74,40" fill="#CC734C"></path><path d="M489.33,838.82a26.55,26.55,0,0,1,8.69,7.55,38.8,38.8,0,0,1,3.1,4.79c.93,1.67,1.77,3.39,2.55,5.15a55.12,55.12,0,0,1,3.46,11,48,48,0,0,1,.94,11.53h-12c-.19-3.25-.36-6.48-.7-9.73s-.77-6.48-1.4-9.74l-.5-2.44-.58-2.45c-.42-1.63-.87-3.26-1.29-4.93A104.17,104.17,0,0,1,489.33,838.82Z" fill="#592d3d"></path><path d="M641.65,878.86a69.14,69.14,0,0,0-21.94-50.6" fill="#CC734C"></path><path d="M635.65,878.86A107,107,0,0,0,634.39,866a81.92,81.92,0,0,0-3.12-12.67c-.34-1-.74-2.07-1.11-3.11s-.84-2.05-1.25-3.09-.94-2-1.38-3.05l-1.46-3c-2-4.1-4.17-8.19-6.36-12.75a35.76,35.76,0,0,1,12.22,8.61c.83.94,1.7,1.86,2.47,2.85s1.54,2,2.25,3,1.43,2.09,2.07,3.18,1.31,2.18,1.88,3.32A62.19,62.19,0,0,1,646,863.58a56.6,56.6,0,0,1,1.62,15.28Z" fill="#592d3d"></path><path d="M503,878.86a69.31,69.31,0,1,0,138.61,0" fill="none" stroke="#592d3d" stroke-miterlimit="10" stroke-width="12px"></path><path d="M515.77,838.82a69,69,0,0,0-12.73,40" fill="#CC734C"></path><path d="M515.77,838.82a104.17,104.17,0,0,1-2.27,10.75c-.42,1.67-.87,3.3-1.29,4.93l-.57,2.45-.5,2.44c-.63,3.26-1.09,6.5-1.41,9.74s-.5,6.48-.69,9.73H497a47,47,0,0,1,.94-11.53,54.48,54.48,0,0,1,3.46-11c.77-1.76,1.61-3.48,2.54-5.15a40,40,0,0,1,3.1-4.79A26.66,26.66,0,0,1,515.77,838.82Z" fill="#592d3d"></path><line x1="383.44" y1="837.55" x2="383.44" y2="758.72" fill="none" stroke="#592d3d" stroke-miterlimit="10" stroke-width="12px"></line><line x1="616.46" y1="837.55" x2="616.46" y2="758.72" fill="none" stroke="#592d3d" stroke-miterlimit="10" stroke-width="12px"></line><path d="M470.5,897.78h53.9v19.7c-17.74-6.05-35.71-5.9-53.9,0Z" fill="#FFFFFF" stroke="#592d3d" stroke-miterlimit="10" stroke-width="12px"></path><path d="M638.1,878.86a69.06,69.06,0,0,0-18.63-47.28c-4.22-4.52-44.27,6.19-67.81,27.26-23.11,20.69-43.23,54.49-40.35,58.75A69.31,69.31,0,0,0,638.1,878.86Z" fill="#FFFFFF" stroke="#592d3d" stroke-miterlimit="10" stroke-width="12px"></path><path d="M598.11,848.39c-6.12,3.67-12.15,7.18-18,11a154.79,154.79,0,0,0-16.53,12.18c-5.15,4.46-10.11,9.32-15,14.26s-9.69,10-14.75,15.07a100,100,0,0,1,11.18-18.17A106.06,106.06,0,0,1,559.72,867a84.36,84.36,0,0,1,18.14-11.73A83.45,83.45,0,0,1,598.11,848.39Z" fill="#ffffff"></path><path d="M361.9,878.86a69.06,69.06,0,0,1,18.63-47.28c4.22-4.52,44.27,6.19,67.81,27.26,23.11,20.69,43.23,54.49,40.35,58.75A69.31,69.31,0,0,1,361.9,878.86Z" fill="#FFFFFF" stroke="#592d3d" stroke-miterlimit="10" stroke-width="12px"></path><path d="M455.75,938.92a85.36,85.36,0,0,1-85.36-85.36,86.38,86.38,0,0,1,.44-8.71,69.31,69.31,0,0,0,96.31,93.29A85.67,85.67,0,0,1,455.75,938.92Z" fill="#E2E2E2"></path><path d="M361.9,878.86a69.06,69.06,0,0,1,18.63-47.28c4.22-4.52,44.27,6.19,67.81,27.26,23.11,20.69,43.23,54.49,40.35,58.75A69.31,69.31,0,0,1,361.9,878.86Z" fill="none" stroke="#592d3d" stroke-miterlimit="10" stroke-width="12px"></path><path d="M401.89,848.39a83.45,83.45,0,0,1,20.25,6.87A84.36,84.36,0,0,1,440.28,867a106.06,106.06,0,0,1,14.65,15.71,100,100,0,0,1,11.18,18.17c-5.06-5-9.84-10.13-14.75-15.07s-9.84-9.8-15-14.26a154.79,154.79,0,0,0-16.53-12.18C414,855.57,408,852.06,401.89,848.39Z" fill="#ffffff"></path><path d="M613.76,758.16H559.55v.1H589a175.21,175.21,0,0,1-2.12,27.22q-1,6.57-2.57,12.88a116.51,116.51,0,0,1-14.71,34.22,92,92,0,0,1-6.61,9c-37.06,37-95.95,39-131.74-1.19A98.26,98.26,0,0,1,420.8,825a124.07,124.07,0,0,1-13.4-39.48q-1-6.57-1.58-13.39c-.35-4.54-.54-9.15-.54-13.82h29.47v-.1H380.53c.82,22.29-1.59,75.64-9.11,84.48l-4.16,213.48a13.27,13.27,0,0,0,13.27,13.27H619.47a13.27,13.27,0,0,0,13.27-13.27l-2.38-215.36C620.61,840.76,613.42,783.07,613.76,758.16Z" fill="#FFFFFF"></path><polygon points="632.74 831.31 609.95 869.4 621.34 999.43 632.94 999.43 632.94 893.78 632.74 831.31" fill="#E2E2E2"></polygon><path d="M380.53,1069.39H497.15c-109.2,0-100.91-231.14-129.89-231.14v217.87A13.27,13.27,0,0,0,380.53,1069.39Z" fill="#E2E2E2"></path><path d="M361.26,860.4a63.71,63.71,0,0,1-.1-8.29q.19-4.15.71-8.31c.18-1.39.35-2.77.57-4.16s.44-2.77.78-4.16a27.84,27.84,0,0,1,3.44-8.35,27.54,27.54,0,0,1,3.73,8.22c.39,1.38.68,2.76.93,4.13s.5,2.76.72,4.14c.44,2.75.79,5.51,1,8.27a62,62,0,0,1,.21,8.29Z" fill="#592d3d"></path><path d="M632.74,869.4v8c.26,34,.26,69,0,102.76,0,2.87,0,5.72,0,8.53v67.41a13.27,13.27,0,0,1-13.27,13.27H380.53a13.27,13.27,0,0,1-13.27-13.27V998q0-3.76,0-7.65c-.25-34.86-.25-69.86,0-105.3V860.29" fill="none" stroke="#592d3d" stroke-miterlimit="10" stroke-width="12px"></path><path d="M626.76,869.38a65.79,65.79,0,0,1,.65-8.53q.57-4.25,1.46-8.47c.3-1.41.6-2.82.94-4.22s.69-2.81,1.15-4.21a29.21,29.21,0,0,1,4.18-8.28,28.9,28.9,0,0,1,3,8.78c.26,1.45.42,2.89.55,4.33s.25,2.88.35,4.31c.18,2.87.28,5.74.25,8.59a67.65,67.65,0,0,1-.54,8.54Z" fill="#592d3d"></path><path d="M368.1,833c21.58-5.27,12.43-74.73,12.43-74.73l233.23-.1s3.93,76.62,19.18,82.92" fill="none" stroke="#592d3d" stroke-miterlimit="10" stroke-width="12px"></path><path d="M589,758.26a175.22,175.22,0,0,1-2.11,27.22q-1,6.57-2.57,12.88a116.51,116.51,0,0,1-14.71,34.22,92,92,0,0,1-6.61,9c-37.06,37-95.95,39-131.74-1.19A98.26,98.26,0,0,1,420.8,825a124.07,124.07,0,0,1-13.4-39.48q-1-6.57-1.58-13.39c-.35-4.54-.54-9.15-.54-13.82" fill="none" stroke="#592d3d" stroke-miterlimit="10" stroke-width="12px"></path><g transform="translate(0 30)"><path d="M551.55,939.73a11.33,11.33,0,0,0-3-1.2V907.92a11.25,11.25,0,0,0,3.06-1.22,11.49,11.49,0,1,0-14.08-17.84L511,873.57a11.48,11.48,0,1,0-22.48-3.28,11.68,11.68,0,0,0,.47,3.26l-26.5,15.3a11.65,11.65,0,0,0-2.59-2.05,11.49,11.49,0,1,0-11.48,19.9,11.25,11.25,0,0,0,3.06,1.22v30.6a11.71,11.71,0,0,0-3,1.21,11.49,11.49,0,1,0,11.48,19.9,11.65,11.65,0,0,0,2.57-2L489,972.9a11.25,11.25,0,0,0-.47,3.25,11.48,11.48,0,1,0,23,0,11.68,11.68,0,0,0-.58-3.62l26.33-15.2a11.24,11.24,0,0,0,2.84,2.3,11.49,11.49,0,0,0,11.48-19.9ZM465.35,947a11.36,11.36,0,0,0-1.21-3,11.59,11.59,0,0,0-2-2.56l34.68-60.06a11.67,11.67,0,0,0,3.2.45,11.37,11.37,0,0,0,3.21-.46l34.67,60.06a11.45,11.45,0,0,0-3.23,5.6Zm69.45-53.36a11.46,11.46,0,0,0,8.26,14.28v30.65l-.44.11-34.68-60.07.3-.3Zm-43.06-15.34.33.32-34.68,60.07-.45-.12V907.89a11.45,11.45,0,0,0,8.25-14.29Zm16.75,90.14a11.5,11.5,0,0,0-16.76-.23l-26.51-15.31.12-.44h69.32c.06.25.13.51.21.75Z" stroke="#ffffff" stroke-width="16px"></path><path d="M551.55,939.73a11.33,11.33,0,0,0-3-1.2V907.92a11.25,11.25,0,0,0,3.06-1.22,11.49,11.49,0,1,0-14.08-17.84L511,873.57a11.48,11.48,0,1,0-22.48-3.28,11.68,11.68,0,0,0,.47,3.26l-26.5,15.3a11.65,11.65,0,0,0-2.59-2.05,11.49,11.49,0,1,0-11.48,19.9,11.25,11.25,0,0,0,3.06,1.22v30.6a11.71,11.71,0,0,0-3,1.21,11.49,11.49,0,1,0,11.48,19.9,11.65,11.65,0,0,0,2.57-2L489,972.9a11.25,11.25,0,0,0-.47,3.25,11.48,11.48,0,1,0,23,0,11.68,11.68,0,0,0-.58-3.62l26.33-15.2a11.24,11.24,0,0,0,2.84,2.3,11.49,11.49,0,0,0,11.48-19.9ZM465.35,947a11.36,11.36,0,0,0-1.21-3,11.59,11.59,0,0,0-2-2.56l34.68-60.06a11.67,11.67,0,0,0,3.2.45,11.37,11.37,0,0,0,3.21-.46l34.67,60.06a11.45,11.45,0,0,0-3.23,5.6Zm69.45-53.36a11.46,11.46,0,0,0,8.26,14.28v30.65l-.44.11-34.68-60.07.3-.3Zm-43.06-15.34.33.32-34.68,60.07-.45-.12V907.89a11.45,11.45,0,0,0,8.25-14.29Zm16.75,90.14a11.5,11.5,0,0,0-16.76-.23l-26.51-15.31.12-.44h69.32c.06.25.13.51.21.75Z" fill="#e535ab"></path></g><path d="M426.88,961.63a69.32,69.32,0,0,0,65.62-47,71,71,0,0,1-118.19,6.64L374.26,936C387,951.63,405.15,961.63,426.88,961.63Z" opacity="0.1"></path><path d="M573.12,961.63a69.32,69.32,0,0,1-65.62-47,71,71,0,0,0,118.19,6.64l0,14.72C613,951.63,594.85,961.63,573.12,961.63Z" opacity="0.1"></path><path d="M407,943.81A69.33,69.33,0,0,1,380.42,831.7" fill="#FFFFFF"></path><path d="M407,943.81a57.14,57.14,0,0,1-31.21-16l-1.62-1.6c-.53-.54-1-1.13-1.53-1.69s-1-1.15-1.48-1.73a22,22,0,0,1-1.43-1.79c-.9-1.23-1.81-2.46-2.68-3.72l-2.37-3.93a69,69,0,0,1-6.71-17.13,70.52,70.52,0,0,1-1.69-18.3,64.09,64.09,0,0,1,3.4-17.93c.26-.71.49-1.43.76-2.14l.88-2.1c.55-1.4,1.26-2.74,1.91-4.09a60.79,60.79,0,0,1,4.74-7.63c.85-1.21,1.82-2.35,2.75-3.49s1.94-2.23,3-3.23a47.65,47.65,0,0,1,6.73-5.59c-5.79,10-9.9,20.19-11.66,30.67A78.09,78.09,0,0,0,367.61,878a84.63,84.63,0,0,0,2,15.41,80.81,80.81,0,0,0,5.12,14.65,76.2,76.2,0,0,0,8.08,13.47,79,79,0,0,0,10.81,11.95A115,115,0,0,0,407,943.81Z" fill="#592d3d"></path><path d="M593.05,943.81A69.33,69.33,0,0,0,619.58,831.7" fill="#FFFFFF"></path><path d="M593.05,943.81a115,115,0,0,0,13.35-10.29,79,79,0,0,0,10.81-11.95,76.2,76.2,0,0,0,8.08-13.47,80.81,80.81,0,0,0,5.12-14.65,84.63,84.63,0,0,0,2-15.41,78.09,78.09,0,0,0-1.15-15.67c-1.76-10.48-5.87-20.64-11.66-30.67a47.65,47.65,0,0,1,6.73,5.59c1.08,1,2,2.14,3,3.23s1.9,2.28,2.75,3.49a60.79,60.79,0,0,1,4.74,7.63c.65,1.35,1.36,2.69,1.91,4.09l.88,2.1c.27.71.5,1.43.76,2.14a64.09,64.09,0,0,1,3.4,17.93,70.52,70.52,0,0,1-1.69,18.3,69,69,0,0,1-6.71,17.13L633,917.26c-.87,1.26-1.78,2.49-2.68,3.72a22,22,0,0,1-1.43,1.79c-.49.58-1,1.16-1.48,1.73s-1,1.15-1.53,1.69l-1.62,1.6A57.14,57.14,0,0,1,593.05,943.81Z" fill="#592d3d"></path><path d="M271.4,568.53c-1-28.36,18-52.36,43.28-63.56a62.37,62.37,0,0,1,8.16-2.7A70,70,0,0,1,365.05,505a71.67,71.67,0,0,1,8.93,4.16c29.53,15.89,42.79,53.25,31.36,83.46a61.68,61.68,0,0,1-4.18,8.82,54.68,54.68,0,0,1-17.51,20.83,69.25,69.25,0,0,1-7.85,5c-27.38,13-64.38,9-86.45-11.4a68.39,68.39,0,0,1-6.11-7.47,64.89,64.89,0,0,1-5.57-9.5A55.78,55.78,0,0,1,272,577.1,75.67,75.67,0,0,1,271.4,568.53Z" fill="#B56241"></path><path d="M269.77,550.18c-1-28.36,18-52.36,43.28-63.56a62.23,62.23,0,0,1,8.15-2.7,70,70,0,0,1,42.22,2.68,71.54,71.54,0,0,1,8.92,4.16c29.53,15.89,42.79,53.26,31.36,83.46a59.6,59.6,0,0,1-4.18,8.82,63.85,63.85,0,0,1-4.71,7.8,64.78,64.78,0,0,1-5.68,7,63.08,63.08,0,0,1-7.12,6.07,68.37,68.37,0,0,1-7.85,5c-27.38,13-64.38,9-86.44-11.39a68.28,68.28,0,0,1-6.11-7.48,65,65,0,0,1-5.58-9.5,55.59,55.59,0,0,1-5.71-21.73A71.3,71.3,0,0,1,269.77,550.18Z" fill="#ffffff"></path><circle cx="338.51" cy="541.79" r="12.24" fill="#592d3d"></circle><path d="M399.52,583a59.6,59.6,0,0,0,4.18-8.82,62.5,62.5,0,0,0,2.57-8.64c-68.32-7.75-127,20.81-127,20.81l1.1,1.75c.41.62.82,1.24,1.25,1.84a68.28,68.28,0,0,0,6.11,7.48c22.06,20.36,59.06,24.36,86.44,11.39a68.37,68.37,0,0,0,7.85-5,63.08,63.08,0,0,0,7.12-6.07,64.78,64.78,0,0,0,5.68-7A63.85,63.85,0,0,0,399.52,583Z" fill="#CC734C" stroke="#592d3d" stroke-miterlimit="10" stroke-width="6px"></path><path d="M269.77,550.18c-1-28.36,18-52.36,43.28-63.56a62.23,62.23,0,0,1,8.15-2.7,70,70,0,0,1,42.22,2.68,71.54,71.54,0,0,1,8.92,4.16c29.53,15.89,42.79,53.26,31.36,83.46a59.6,59.6,0,0,1-4.18,8.82,63.85,63.85,0,0,1-4.71,7.8,64.78,64.78,0,0,1-5.68,7,63.08,63.08,0,0,1-7.12,6.07,68.37,68.37,0,0,1-7.85,5c-27.38,13-64.38,9-86.44-11.39a68.28,68.28,0,0,1-6.11-7.48,65,65,0,0,1-5.58-9.5,55.59,55.59,0,0,1-5.71-21.73A71.3,71.3,0,0,1,269.77,550.18Z" stroke="#592d3d" stroke-miterlimit="10" fill="none" stroke-width="12px"></path><path d="M583.89,560.47c.43-15.13,6.67-30.09,15.1-41.33a72.82,72.82,0,0,1,7.12-8.53,69.73,69.73,0,0,1,90.17-8.95,73.27,73.27,0,0,1,6.53,5.13c27,21.45,30.12,63.14,15.32,93.23a62.31,62.31,0,0,1-4.78,6.86,72.09,72.09,0,0,1-7.58,8.13c-20.27,17.83-51.81,22.13-77.41,12.42a71.34,71.34,0,0,1-10.55-5c-17.9-10.78-30.37-31.09-33.43-52.23A62.93,62.93,0,0,1,583.89,560.47Z" fill="#CC734C"></path><path d="M589.38,549c.42-14.15,6.42-28.15,14.52-38.66a70.56,70.56,0,0,1,6.86-8A68.55,68.55,0,0,1,697.53,494a69.81,69.81,0,0,1,6.28,4.79c26,20.07,29,59.07,14.74,87.22a56.5,56.5,0,0,1-4.6,6.42,68.91,68.91,0,0,1-7.29,7.6c-19.51,16.68-49.86,20.71-74.49,11.62A68.79,68.79,0,0,1,622,606.9c-17.22-10.08-29.22-29.08-32.17-48.85A56.34,56.34,0,0,1,589.38,549Z" stroke="#592d3d" fill="#ffffff" stroke-miterlimit="10" stroke-width="12px"></path><circle cx="659.21" cy="550.79" r="12.24" fill="#592d3d"></circle><path d="M718.86,618.11c-10.23,5-20.32,9.55-31.34,12.69a97.34,97.34,0,0,1-16.46,3.3,141.1,141.1,0,0,1-17.69.3A144.2,144.2,0,0,1,633,632.48c-1.93-.31-4.13.51-4.62,2.62-.41,1.81.55,4.28,2.62,4.62a164.26,164.26,0,0,0,19.66,2.1c3.19.13,6.37.06,9.56.16a78.25,78.25,0,0,0,9.06-.21c12-1,23.62-4.28,34.76-8.76,6.32-2.55,12.52-5.4,18.63-8.42a3.77,3.77,0,0,0,1.34-5.13,3.83,3.83,0,0,0-5.13-1.35Z" fill="#592d3d"></path><path d="M365.31,627.42c-11.37,2.16-22.4,3.8-34.06,3.83a95.68,95.68,0,0,1-17-1.36,171.78,171.78,0,0,1-35.56-11.64,3.85,3.85,0,0,0-5.13,1.35c-.95,1.62-.5,4.27,1.34,5.13a164.42,164.42,0,0,0,17.87,7.1c2.91,1,5.87,1.7,8.78,2.6a91.22,91.22,0,0,0,8.91,2.35c11.95,2.42,24.22,2.37,36.31,1,6.88-.76,13.71-1.88,20.51-3.17,2-.37,3.12-2.77,2.62-4.61a3.83,3.83,0,0,0-4.62-2.62Z" fill="#592d3d"></path><g transform="translate(0 -5)"><path d="M243.89,489.13c5.64,15.83,20.9,24.06,33.4,26.94,13.06-20.24,56.65-28.92,89.37-17.44,27.8,5-10.81-25.57-72.47-9-2.31.85-14.56,2.95-30.28-9.19-2.19-1.69,4.68,13.71,12.5,20C265.06,500.21,263.2,500.22,243.89,489.13Z" fill="#592d3d" fill-rule="evenodd"></path><path d="M721.21,500.43c7.82-6.25,14.69-21.65,12.5-20-15.72,12.14-28,10-30.28,9.19-61.66-16.6-100.28,14-72.48,9,32.73-11.48,76.32-2.8,89.38,17.44,12.5-2.88,27.76-11.11,33.4-26.94C734.42,500.22,732.56,500.21,721.21,500.43Z" fill="#592d3d" fill-rule="evenodd"></path></g><circle cx="499.7" cy="642.93" r="53.95" fill="#592d3d"></circle><path d="M491.21,663.39c-14.07-3.37-27.62,1-33.45,9.87a48.46,48.46,0,0,0,52.82,20.14,49.33,49.33,0,0,0,6-2C517.93,679.39,507.08,667.18,491.21,663.39Z" fill="#f28195"></path><path d="M478.65,652l.8,0h.65c.43,0,.84,0,1.25.06a17.92,17.92,0,0,1,2.44.35,21,21,0,0,1,4.74,1.53,18.15,18.15,0,0,1,7.78,6.65,17.17,17.17,0,0,1,2.77,9.28,14.75,14.75,0,0,1-2.69,8.47c-1.3-2.76-2.24-5.2-3.31-7.29a24,24,0,0,0-1.62-2.87,12.38,12.38,0,0,0-1.95-2.21,13,13,0,0,0-4.82-2.66,24.72,24.72,0,0,0-2.85-.69c-.49-.07-1-.16-1.47-.22l-.73-.07-.33,0c-.08,0-.26,0-.19,0Z" fill="#592d3d"></path><circle cx="499.7" cy="642.93" r="53.95" fill="none" stroke="#592d3d" stroke-miterlimit="10" stroke-width="8px"></circle><path d="M558.73,399.34c-12.86,24-60,37.44-63.83,31.42-4.29-6.73,37.85-55.32,13.9-106.14" fill="#B56241"></path><path d="M784,342.85c-5.1-5.1-31.06,1.83-57.19-.23A281,281,0,0,0,505.63,228.28c-2.44-20.48-.75-37.68-2.61-40.1-2.49-3.22-15.49,12.68-18.87,31-11.91-15-32.14-23-32.72-18.8-.38,2.68,7.44,14.09,14.81,29.9-111.6,13.47-203.08,92.26-235.08,197-13.86,11.92-26.86,20.34-27,25.69-.27,9.92,39.31,9.36,56.58,7.82v-.06c60.65-2,179-13.78,236.42-72.89C491.64,406.93,481.47,421,483.43,424c3,4.67,38.32-5.19,50.07-23.24,48,19.59,139.49,43.16,219-16.16l-.22-.43C766.77,372.06,790.35,349.25,784,342.85Z" fill="#ffffff"></path><path d="M726.85,348.62c-5.4.24-10.66.11-16-.14s-10.59-.67-15.87-1.26c-2.64-.29-5.28-.6-7.91-1s-5.27-.72-7.89-1.23a76.91,76.91,0,0,1-15.58-4.54,91.87,91.87,0,0,1,16-2.62c2.63-.22,5.26-.37,7.89-.48l7.88-.34c5.25-.22,10.49-.34,15.72-.45s10.48-.12,15.62,0Z" fill="#592d3d"></path><path d="M236.6,430s0,.24,0,.39l-.12.53-.28,1.11c-.21.75-.43,1.52-.66,2.29-.47,1.55-1,3.14-1.54,4.75s-1.06,3.28-1.77,5a20.6,20.6,0,0,1-1.38,2.6,17.91,17.91,0,0,1-2.07,2.77,13.14,13.14,0,0,1-3.72-5.47,16.11,16.11,0,0,1-.76-2.9c-.21-1-.31-2-.43-2.95a30,30,0,0,1,0-6,24.44,24.44,0,0,1,.48-3c.12-.5.25-1,.41-1.51a7.84,7.84,0,0,1,.27-.77c.1-.28.18-.48.36-.9Z" fill="#592d3d"></path><path d="M260.74,460.82v-.06c17-.56,38.63-1.9,62.14-4.84,2.63-55.92,22-121.58,65.92-198.44h0L382,254.23A282.15,282.15,0,0,0,231.16,427.31c-13.86,11.92-26.86,20.34-27,25.69C203.89,462.92,243.47,462.36,260.74,460.82Z" fill="#E2E2E2"></path><path d="M784,342.85c-5.1-5.1-31.06,1.83-57.19-.23A281,281,0,0,0,505.63,228.28c-2.44-20.48-.75-37.68-2.61-40.1-2.49-3.22-15.49,12.68-18.87,31-11.91-15-32.14-23-32.72-18.8-.38,2.68,7.44,14.09,14.81,29.9-111.6,13.47-203.08,92.26-235.08,197-13.86,11.92-26.86,20.34-27,25.69-.27,9.92,39.31,9.36,56.58,7.82v-.06c60.65-2,179-13.78,236.42-72.89C491.64,406.93,481.47,421,483.43,424c3,4.67,38.32-5.19,50.07-23.24,48,19.59,139.49,43.16,219-16.16l-.22-.43C766.77,372.06,790.35,349.25,784,342.85Z" fill="none" stroke="#592d3d" stroke-miterlimit="10" stroke-width="12px"></path><path d="M505.93,244.31a367.42,367.42,0,0,0-42.48,4.94c-3.48.67-6.95,1.41-10.44,2.05s-6.9,1.61-10.35,2.41l-10.26,2.72c-3.4,1-6.77,2.08-10.15,3.12a314.12,314.12,0,0,0-39.43,15.73,348.31,348.31,0,0,0-37.25,21,183.85,183.85,0,0,1,35.08-25.14,219.23,219.23,0,0,1,39.76-17.29c3.48-1,6.94-2.09,10.42-3.05s7-1.82,10.55-2.6,7.1-1.4,10.66-2,7.15-1.07,10.73-1.52A190,190,0,0,1,505.93,244.31Z" fill="#ffffff"></path><path d="M427.29,501.13l-13-4.39-31.2-10.54-37.6-12.71-32.49-11c-5.27-1.78-10.51-3.68-15.81-5.34l-.22-.08a10,10,0,0,0-5.32,19.29l13,4.39,31.2,10.54,37.6,12.7,32.49,11c5.26,1.78,10.5,3.67,15.81,5.34l.22.08a10,10,0,0,0,5.32-19.29Z" fill="#592d3d"></path><path d="M697.18,453.9,684.46,459l-30.54,12.31-36.81,14.84L585.3,499q-7.74,3.12-15.47,6.24l-.22.08c-2.51,1-4.56,2.17-6,4.6a10.18,10.18,0,0,0-1,7.71,10.06,10.06,0,0,0,4.6,6c2.22,1.18,5.26,2,7.7,1l12.73-5.13,30.54-12.31L655,492.33l31.81-12.82c5.15-2.08,10.32-4.15,15.47-6.24l.22-.09c2.51-1,4.56-2.17,6-4.59a10,10,0,0,0-3.59-13.69c-2.22-1.17-5.27-2-7.71-1Z" fill="#592d3d"></path><path d="M725,631.82a265.34,265.34,0,0,0,26.3-59.43c-17.24,35.74-49.84,65.46-92.11,65.46A106.75,106.75,0,0,1,552.58,531.22,105.67,105.67,0,0,1,560.41,491H758a105.33,105.33,0,0,1,7.62,33.39c.73-8,1.12-16.19,1.12-24.42a269.16,269.16,0,0,0-1.58-29H575v0H423.14v0H234.83a269.16,269.16,0,0,0-1.58,29c0,4.73.14,9.42.38,14.09A104.92,104.92,0,0,1,240.1,491H437.7a106.7,106.7,0,0,1-98.8,146.82c-38.8,0-68.82-25.83-87.48-56.89a266.14,266.14,0,0,0,24.76,52.84c19.39,12.07,38.25,24.05,62.72,24.05A126.78,126.78,0,0,0,465.53,531.22c0-1.81,0-3.61-.12-5.4,23.38-8.23,45.52-8.35,67.31-.36-.08,1.91-.14,3.83-.14,5.76A126.78,126.78,0,0,0,659.21,657.85C685,657.85,705,645.1,725,631.82ZM535.26,505.18c-23.4-7.55-47.64-7.42-72.33.39A124.62,124.62,0,0,0,459,491h80.1A122.6,122.6,0,0,0,535.26,505.18Z" opacity="0.15"></path><path d="M233.59,469.82s.41,32.23.41,50.2c0,64.41,40.48,116.63,104.9,116.63A116.68,116.68,0,0,0,444.2,469.82Z" fill="#592d3d" opacity="0.95"></path><path d="M553.91,469.82a116.68,116.68,0,0,0,105.3,166.83c64.42,0,107.54-52.22,107.54-116.63,0-18-2.23-50.2-2.23-50.2Z" fill="#592d3d" opacity="0.95"></path><path d="M320,626.86,443.07,503.78a93.05,93.05,0,0,0-10-17.27L302.72,616.88A93.62,93.62,0,0,0,320,626.86Z" fill="#ffffff" opacity="0.25"></path><path d="M455.86,507.53c29.52-12,58.53-12.42,87,0" fill="none" stroke="#592d3d" stroke-miterlimit="10" stroke-width="20px"></path><path d="M274.28,504.75c2.06,6.51-5.94,11.51-11.94,12.51-6,0-10-4-12-9-1-5,0-10,4-13,5-2,12-4,16.44,1.12A11.7,11.7,0,0,1,274.28,504.75Z" fill="#ffffff"></path><path d="M285,500.93c-.61,4.33-6.61,4.33-7.61.33,0-3,1-4,3.84-4.1A3.77,3.77,0,0,1,285,500.93Z" fill="#ffffff"></path><path d="M645.19,618.92,751.47,512.64a93.89,93.89,0,0,0-2.41-11.22L634,616.51A94.31,94.31,0,0,0,645.19,618.92Z" fill="#ffffff" opacity="0.25"></path><path d="M590.68,505.73c2.06,6.51-5.94,11.51-11.94,12.51-6,0-10-4-12-9-1-5,0-10,4-13,5-2,12-4,16.45,1.12A11.69,11.69,0,0,1,590.68,505.73Z" fill="#ffffff"></path><path d="M601.35,501.91c-.61,4.33-6.61,4.33-7.61.33,0-3,1-4,3.85-4.1A3.76,3.76,0,0,1,601.35,501.91Z" fill="#ffffff"></path><path d="M233.59,469.82s-.34,31.69.41,50.2c2.6,64.36,40.48,116.63,104.9,116.63A116.68,116.68,0,0,0,444.2,469.82Z" fill="none" stroke="#592d3d" stroke-miterlimit="10" stroke-width="20px"></path><path d="M553.91,469.82a116.68,116.68,0,0,0,105.3,166.83c64.42,0,107.54-51.53,107.54-115.94,0-18-2.23-50.89-2.23-50.89Z" fill="none" stroke="#592d3d" stroke-miterlimit="10" stroke-width="20px"></path><line x1="423.14" y1="469.81" x2="574.97" y2="469.81" fill="none" stroke="#592d3d" stroke-miterlimit="10" stroke-width="20px"></line></g></svg>