<svg xmlns="http://www.w3.org/2000/svg" viewBox="0 0 1000 990"><mask id="mask"><path d="M1000,0H0V718.31H179.2c38.38,142.38,167.45,247.1,320.8,247.1s282.42-104.72,320.8-247.1H1000Z" fill="white"></path></mask><g mask="url(#mask)"><circle cx="500" cy="630.1601" r="332.441995" fill="#85c5e5"></circle><path d="M610,758.72c90.76,0,72,114.24,72.87,241.28H610Z" fill="#FBE8B3"></path><path d="M632.74,831.87,610,870l11.38,130h31.76C653.91,819.73,632.74,831.87,632.74,831.87Z" fill="#EDD494"></path><path d="M233.25,500c0-147.32,119.43-266.75,266.75-266.75S766.75,352.68,766.75,500A266.22,266.22,0,0,1,668.1,707.12q-8.21,6.68-16.94,12.69C591,758,515,758,446.39,751.89c-6.66-1-13.3-2.26-19.89-3.71-26.33-5.8-51.82-14.75-75.37-27.8Q342.4,715,334.2,708.76a199.59,199.59,0,0,1-15.8-13.38q-7.14-6.63-13.79-13.78A265.86,265.86,0,0,1,233.25,500Z" fill="#FBE8B3"></path><path d="M269.61,634.48c.7,1.2,1.39,2.4,2.11,3.58.43.72.88,1.42,1.33,2.14.66,1.07,1.32,2.14,2,3.19.48.76,1,1.5,1.46,2.24.66,1,1.32,2,2,3,.51.76,1,1.52,1.56,2.28.66,1,1.32,1.92,2,2.88.54.77,1.1,1.53,1.65,2.3s1.34,1.85,2,2.77,1.15,1.53,1.73,2.29,1.37,1.8,2.07,2.7,1.19,1.51,1.79,2.26,1.41,1.76,2.12,2.63,1.23,1.49,1.85,2.23,1.44,1.72,2.17,2.57,1.27,1.47,1.91,2.2l2.22,2.5c.65.73,1.31,1.44,2,2.16.86.94,1.73,1.87,2.6,2.79l1.21,1.28c1.29,1.34,2.59,2.68,3.91,4l.26.27c1.29,1.28,2.6,2.55,3.91,3.81l1.58,1.5c.95.89,1.9,1.78,2.86,2.66l1.16,1.06c1,.94,2.09,1.86,3.14,2.78q4.9,4.27,10,8.19,8.19,6.24,16.93,11.62c23.55,13,49,22,75.37,27.8,6.59,1.45,13.23,2.7,19.89,3.71,42.1,3.75,87,5.18,129.28-3.08C508.45,729,185.59,612.74,388.8,257.48h0c-2.72,1.25-5.4,2.54-8.06,3.88l-.59.29c-1.22.61-2.44,1.24-3.65,1.88l-1,.53c-3.76,2-7.48,4.07-11.13,6.23l-.9.53c-1.16.69-2.31,1.39-3.46,2.1l-.87.54q-5.36,3.35-10.55,6.93l-1.08.75c-1.09.76-2.16,1.52-3.23,2.29l-.66.47q-3.27,2.39-6.46,4.84l-.62.48c-1,.78-2,1.58-3,2.39l-1.17.94c-1,.81-2,1.62-3,2.45l0,0c-2.11,1.75-4.19,3.55-6.24,5.37l-1.14,1-2.69,2.45L318,305q-4.28,4-8.37,8.17l-1.38,1.41c-.79.82-1.58,1.64-2.36,2.47-.46.49-.92,1-1.37,1.48q-2.06,2.2-4.06,4.46c-.45.51-.91,1-1.36,1.54-.71.81-1.41,1.63-2.11,2.45l-1.51,1.79c-.68.81-1.36,1.62-2,2.44-.54.66-1.08,1.33-1.61,2-1.07,1.33-2.12,2.66-3.16,4-.54.7-1.08,1.4-1.61,2.11s-1.2,1.59-1.79,2.4-1.07,1.45-1.59,2.18-1.13,1.55-1.68,2.33q-1.42,2-2.8,4.05c-.5.73-1,1.48-1.49,2.22s-1.1,1.66-1.64,2.5l-1.49,2.31-1.68,2.71c-.43.69-.86,1.38-1.28,2.07-.89,1.46-1.75,2.93-2.61,4.4l-1.22,2.16c-.54.95-1.08,1.91-1.61,2.87-.4.73-.8,1.46-1.19,2.19-.64,1.19-1.27,2.39-1.9,3.59l-1.2,2.34c-.64,1.28-1.28,2.55-1.91,3.84-.33.69-.67,1.39-1,2.09-.52,1.09-1,2.19-1.53,3.29-.31.66-.61,1.32-.91,2q-1.11,2.47-2.17,5c-.22.52-.43,1.05-.65,1.57-.53,1.27-1.05,2.54-1.56,3.82-.27.67-.53,1.34-.79,2-.5,1.26-1,2.53-1.45,3.8-.21.55-.42,1.1-.62,1.65q-.94,2.63-1.85,5.26l-.56,1.7q-.66,2-1.29,4l-.6,1.91c-.47,1.54-.93,3.08-1.37,4.63-.1.33-.2.66-.29,1q-.78,2.76-1.5,5.54c-.16.59-.3,1.19-.45,1.78-.35,1.39-.69,2.78-1,4.18l-.42,1.75c-.43,1.9-.85,3.8-1.24,5.71l-.15.77q-.51,2.55-1,5.1c-.11.61-.21,1.21-.32,1.82-.26,1.49-.51,3-.74,4.5-.08.51-.17,1-.24,1.52-.3,1.95-.57,3.91-.83,5.88l-.15,1.3c-.2,1.59-.38,3.19-.55,4.79-.06.6-.13,1.2-.19,1.81-.16,1.68-.31,3.37-.45,5.06,0,.35-.06.69-.08,1q-.22,3-.39,6.05c0,.53,0,1.07-.07,1.6q-.1,2.36-.18,4.71c0,.59,0,1.18,0,1.77,0,2.05-.08,4.11-.08,6.17,0,0,0,.07,0,.1,0,2.22,0,4.42.08,6.62,0,.76.06,1.52.08,2.28.05,1.47.1,2.94.17,4.41,0,.89.11,1.77.16,2.66.08,1.33.15,2.66.25,4,.07,1,.16,1.89.24,2.83.11,1.26.21,2.52.34,3.77.09,1,.21,1.94.31,2.91.14,1.21.27,2.43.42,3.64.12,1,.26,2,.39,2.95.16,1.18.32,2.37.5,3.55.15,1,.31,2,.47,3,.18,1.16.37,2.33.57,3.49.18,1,.36,2,.55,3,.21,1.15.43,2.3.65,3.44s.41,2,.62,3c.24,1.14.48,2.27.74,3.4s.44,2,.68,2.93c.26,1.13.54,2.25.82,3.36s.49,1.95.74,2.91c.3,1.12.6,2.23.91,3.34.26,1,.53,1.92.81,2.87.32,1.11.65,2.21,1,3.31s.58,1.89.88,2.84.7,2.19,1.06,3.28.62,1.87.94,2.8c.38,1.09.76,2.18,1.15,3.27.33.91.65,1.83,1,2.74l1.24,3.27c.35.89.69,1.79,1,2.68.44,1.09.89,2.19,1.34,3.28.36.86.71,1.73,1.08,2.59.47,1.12,1,2.22,1.45,3.33.37.82.73,1.65,1.1,2.47.52,1.16,1.07,2.3,1.6,3.44l1.08,2.3c.61,1.26,1.24,2.5,1.87,3.75.32.63.62,1.27.95,1.9q2.88,5.61,6,11.07C268.88,633.26,269.25,633.87,269.61,634.48Z" fill="#EDD494"></path><path d="M233.25,500c0-147.32,119.43-266.75,266.75-266.75S766.75,352.68,766.75,500A266.22,266.22,0,0,1,668.1,707.12q-8.21,6.68-16.94,12.69C591,758,515,758,446.39,751.89c-6.66-1-13.3-2.26-19.89-3.71-26.33-5.8-51.82-14.75-75.37-27.8Q342.4,715,334.2,708.76a199.59,199.59,0,0,1-15.8-13.38q-7.14-6.63-13.79-13.78A265.86,265.86,0,0,1,233.25,500Z" fill="none" stroke="#592d3d" stroke-miterlimit="10" stroke-width="12px"></path><path d="M386.12,758.72c-90.77,0-72,114.24-72.87,241.28h72.87Z" fill="#FBE8B3"></path><path d="M367.23,831.87,390,870l-11.39,130H346.88C346.07,819.73,367.23,831.87,367.23,831.87Z" fill="#EDD494"></path><path d="M619.47,1070H380.53a13.28,13.28,0,0,1-13.27-13.28V772a13.28,13.28,0,0,1,13.27-13.28H613.76c13.09,0,19,7.66,19,19.88v278.08A13.28,13.28,0,0,1,619.47,1070Z" fill="#FBE8B3"></path><path d="M629.05,766.62a19.33,19.33,0,0,1-2.51-4,17.25,17.25,0,0,0-8.28-3.51,28.88,28.88,0,0,0-4.5-.34H380.53A13.28,13.28,0,0,0,367.26,772c29,10.42,83.29,16.24,132.74,16.24C563.06,788.24,604.38,778.89,629.05,766.62Z" fill="#EDD494"></path><path d="M610,758.72c90.76,0,72,114.24,72.87,241.28H632.74" fill="none" stroke="#592d3d" stroke-linecap="square" stroke-miterlimit="10" stroke-width="12px"></path><path d="M386.12,758.72c-90.77,0-72,114.24-72.87,241.28h50.07" fill="none" stroke="#592d3d" stroke-linecap="square" stroke-miterlimit="10" stroke-width="12px"></path><path d="M380.53,758.82l233.23-.1" fill="none" stroke="#592d3d" stroke-miterlimit="10" stroke-width="12px"></path><path d="M380.53,1070H497.15C388,1070,396.24,838.82,367.26,838.82v217.86A13.28,13.28,0,0,0,380.53,1070Z" fill="#EDD494"></path><path d="M361.26,860.85c-.19-3.67-.11-7.34.05-11s.47-7.35.86-11c.2-1.84.4-3.67.65-5.51s.49-3.67.85-5.51a44.18,44.18,0,0,1,3.59-11,44.18,44.18,0,0,1,3.59,11c.36,1.84.62,3.67.85,5.51s.45,3.67.65,5.51c.38,3.67.68,7.34.85,11s.25,7.34.06,11Z" fill="#592d3d"></path><path d="M632.74,870v8c.26,34,.26,69,0,102.75,0,2.87,0,5.72,0,8.53v67.41A13.28,13.28,0,0,1,619.47,1070H380.53a13.28,13.28,0,0,1-13.27-13.28V998.52c0-2.51,0-5.07,0-7.65-.25-34.87-.25-69.87,0-105.3V860.85" fill="none" stroke="#592d3d" stroke-miterlimit="10" stroke-width="12px"></path><path d="M626.74,870c-.19-4.17-.1-8.35.06-12.53s.47-8.35.85-12.53c.2-2.09.41-4.18.65-6.27s.49-4.17.85-6.26a55.09,55.09,0,0,1,3.59-12.53,55.09,55.09,0,0,1,3.59,12.53c.36,2.09.62,4.18.85,6.26s.45,4.18.65,6.27c.38,4.18.69,8.35.85,12.53s.25,8.36.06,12.53Z" fill="#592d3d"></path><path d="M570.68,842.45C570.9,833,582.9,829,588.9,835a10.61,10.61,0,1,1-15.16,14.85A10.4,10.4,0,0,1,570.68,842.45Z" fill="#592d3d"></path><path d="M408.11,842.15C407.9,834,416.9,830,422.9,833c8,3,8,14,0,19-4,2-8,0-11.75-2.48A10.39,10.39,0,0,1,408.11,842.15Z" fill="#592d3d"></path><path d="M500,831.77a27.13,27.13,0,0,1,1.5,5.84,42.47,42.47,0,0,1,.49,5.84l.3,11.69c.09,3.89.21,7.79.25,11.69l.17,11.67c.23,15.57.22,31.16.28,46.74s.18,31.16,0,46.74c-.09,7.79-.3,15.58-.53,23.37-.1,3.89-.29,7.79-.67,11.68a92.5,92.5,0,0,1-1.77,11.69,92.5,92.5,0,0,1-1.77-11.69c-.38-3.89-.57-7.79-.67-11.68-.23-7.79-.44-15.58-.53-23.37-.2-15.58,0-31.16,0-46.74s0-31.15.18-46.73l.17-11.7.33-11.68.33-11.68a44.11,44.11,0,0,1,.5-5.84A27.13,27.13,0,0,1,500,831.77Z" fill="#EDD494"></path><path d="M425.22,883a18.51,18.51,0,0,1,4.67-1.5,29.75,29.75,0,0,1,4.68-.5l9.35-.33,18.7-.41c12.46-.19,24.91-.24,37.38-.27s24.93-.16,37.39,0c6.23.09,12.46.3,18.7.53,3.11.11,6.23.3,9.34.67a61.34,61.34,0,0,1,9.35,1.78,59.17,59.17,0,0,1-9.35,1.77c-3.11.38-6.23.57-9.34.67-6.24.23-12.47.43-18.7.52-12.46.19-24.92,0-37.39,0s-24.93,0-37.4-.15c-6.23-.06-12.46-.26-18.68-.5l-9.35-.34a29.5,29.5,0,0,1-4.67-.5A18.45,18.45,0,0,1,425.22,883Z" fill="#EDD494"></path><path d="M442.41,914.38a12.51,12.51,0,0,1,3.74-1.11,18.35,18.35,0,0,1,3.62-.15c2.39.1,4.78.16,7.17.21,4.78.11,9.56.15,14.34.17,9.63,0,19.09.08,28.76-.21s19.26-.43,28.88-.39c4.81,0,9.62.13,14.42.24a70.37,70.37,0,0,1,7.23.47,38.17,38.17,0,0,1,7.27,1.53,36.56,36.56,0,0,1-7.16,2,61.08,61.08,0,0,1-7.21.86c-4.82.35-9.64.65-14.45.82-9.64.36-19.27.32-28.88.45-4.81,0-9.61.22-14.48.1s-9.69-.13-14.52-.31-9.68-.58-14.5-1.08c-2.42-.27-4.82-.57-7.23-.9a16.82,16.82,0,0,1-3.57-.84A11.51,11.51,0,0,1,442.41,914.38Z" fill="#EDD494"></path><path d="M438.93,949.87a13.07,13.07,0,0,1,3.82-1.5,19.13,19.13,0,0,1,3.82-.49l7.63-.32c5.09-.18,10.19-.33,15.28-.41C479.66,947,489.84,947,500,947s20.36-.17,30.54,0c5.09.09,10.18.3,15.27.53a72.73,72.73,0,0,1,7.63.66A41.2,41.2,0,0,1,561.1,950a41.25,41.25,0,0,1-7.63,1.77,70.34,70.34,0,0,1-7.64.67c-5.09.23-10.18.44-15.27.53-10.18.2-20.37.06-30.55,0s-20.36-.06-30.54-.25c-5.09-.1-10.19-.28-15.28-.49l-7.63-.37a19.33,19.33,0,0,1-3.82-.5A12.85,12.85,0,0,1,438.93,949.87Z" fill="#EDD494"></path><path d="M680.7,905.78c.2-37.1-1.21-70.07-7.74-95.39-10.08-25.35-28.18-40.47-60.12-40.47l22.85,134.47S658.2,914.68,680.7,905.78Z" fill="#EDD494"></path><path d="M689.3,895.23a20.28,20.28,0,0,1-3.69,2.42" fill="none" stroke="#592d3d" stroke-linecap="square" stroke-miterlimit="10" stroke-width="12px"></path><path d="M329,809.32c-6.82,25.57-8,59.13-7.74,97,19.9,8.55,50.43-2.15,50.43-2.15L389,771.89C358.14,771.89,339.74,785.79,329,809.32Z" fill="#EDD494"></path><path d="M616.66,758.16l-38.44.1c0,53.72-75.33,111.14-75.33,111.14s-80.8-60.58-80.8-111.14l-38.66-.1a13.28,13.28,0,0,0-13.28,13.27v284.69a13.28,13.28,0,0,0,13.28,13.27H622.36a13.27,13.27,0,0,0,13.27-13.27V778C635.63,765.82,629.75,758.16,616.66,758.16Z" fill="#89D86F"></path><path d="M612.84,758.16c63.54,0,73.4,56,73.9,133.16-18.59,11.62-48.91,1.32-48.91,1.32Z" fill="#89D86F"></path><path d="M635.63,831.31,612.84,869.4l11.39,130h11.6V893.78l17.28,2.89C647.49,824.5,635.63,831.31,635.63,831.31Z" fill="#7DC462"></path><path d="M389,758.16c-61.78,0-75.82,53.79-76.85,127.66,19,19.85,57.95,4.58,57.95,4.58Z" fill="#89D86F"></path><path d="M370.12,831.31V890.4l-17.31,4.3C358.48,824.63,370.12,831.31,370.12,831.31Z" fill="#7DC462"></path><path d="M612.84,758.16c67.42,0,78.45,56.28,78.9,133.78-26.2,12.42-53.91.7-53.91.7" fill="none" stroke="#592d3d" stroke-linecap="square" stroke-miterlimit="10" stroke-width="12px"></path><path d="M389,758.16c-66.79,0-80.08,54.69-80.75,130.71,20.59,14.79,61.85,1.53,61.85,1.53" fill="none" stroke="#592d3d" stroke-linecap="square" stroke-miterlimit="10" stroke-width="12px"></path><path d="M383.43,1069.39H500c-109.19,0-100.91-231.14-129.89-231.14v217.87A13.28,13.28,0,0,0,383.43,1069.39Z" fill="#7DC462"></path><path d="M364.15,860.29c-.19-3.67-.11-7.35.06-11s.47-7.34.85-11c.2-1.83.41-3.67.65-5.51s.49-3.67.85-5.5a44.05,44.05,0,0,1,3.59-11,44.05,44.05,0,0,1,3.59,11c.36,1.83.62,3.67.85,5.5s.45,3.68.65,5.51q.58,5.52.86,11c.16,3.67.24,7.35,0,11Z" fill="#592d3d"></path><path d="M635.63,869.4v8c.26,34,.26,69,0,102.76,0,2.87,0,5.72,0,8.53v67.41a13.27,13.27,0,0,1-13.27,13.27H383.43a13.28,13.28,0,0,1-13.28-13.27V990.3c-.26-34.86-.26-69.86,0-105.3V860.29" fill="none" stroke="#592d3d" stroke-miterlimit="10" stroke-width="12px"></path><path d="M629.63,869.4c-.19-4.18-.1-8.36.06-12.53s.47-8.36.86-12.53c.2-2.09.4-4.18.64-6.27s.49-4.18.86-6.27a54.83,54.83,0,0,1,3.58-12.53,54.37,54.37,0,0,1,3.59,12.53c.36,2.09.63,4.18.85,6.27s.45,4.18.65,6.27c.39,4.17.69,8.35.85,12.53s.26,8.35.06,12.53Z" fill="#592d3d"></path><path d="M383.43,758.26l233.23-.1" fill="none" stroke="#592d3d" stroke-miterlimit="10" stroke-width="12px"></path><path d="M310.72,891.94a24.84,24.84,0,0,0,3.68,2.76" fill="none" stroke="#592d3d" stroke-linecap="square" stroke-miterlimit="10" stroke-width="12px"></path><path d="M677.59,882.13a20.25,20.25,0,0,1-6.75,2.52,34.91,34.91,0,0,1-7.21.64,39.94,39.94,0,0,1-7.17-.78c-1.18-.22-2.34-.57-3.49-.87s-2.28-.78-3.38-1.24c1.21,0,2.39.17,3.56.27l3.52.29c1.17,0,2.33.2,3.5.21s2.33.11,3.49.12c2.32.05,4.64,0,7-.18A50.81,50.81,0,0,0,677.59,882.13Z" fill="#592d3d"></path><path d="M578.22,758.26c0,53.72-75.33,111.14-75.33,111.14s-80.8-60.58-80.8-111.14" fill="none" stroke="#592d3d" stroke-miterlimit="10" stroke-width="12px"></path><g transform="translate(0 30)"><path d="M566.88,917.83c0-8.86-11.1-17.26-28.11-22.47,3.93-17.34,2.18-31.13-5.51-35.55a9.56,9.56,0,0,0-6.08-1.56c-8,.13-17.31,5.35-27.23,14.62C490,863.65,479,858.2,472.71,858.36c-3.16.09-4.37.52-6.16,1.56-7.67,4.41-9.38,18.18-5.43,35.47-17,5.23-28,13.61-28,22.44s11.1,17.26,28.11,22.47c-3.93,17.34-2.18,31.13,5.51,35.55a11.93,11.93,0,0,0,6.13,1.53c7.5,0,17.31-5.35,27.24-14.62,9.92,9.22,19.74,14.51,27.24,14.51a12.11,12.11,0,0,0,6.16-1.53c7.66-4.42,9.38-18.19,5.42-35.47C555.84,935.06,566.88,926.66,566.88,917.83Zm-39.72-53.49v0a6.32,6.32,0,0,1,3.1.71c3.71,2.13,5.32,10.23,4.07,20.64-.3,2.56-.79,5.26-1.39,8a133,133,0,0,0-17.32-3,132.78,132.78,0,0,0-11.34-13.63C513.16,868.87,521.49,864.35,527.16,864.34Zm-51.32,67.45q1.92,3.27,3.93,6.38c-3.87-.57-7.61-1.28-11.18-2.15,1-3.52,2.26-7.15,3.68-10.77C473.39,927.43,474.56,929.61,475.84,931.79Zm-7.33-32.15c3.57-.84,7.33-1.58,11.23-2.15-1.33,2.1-2.67,4.25-3.92,6.46s-2.43,4.36-3.55,6.54A114.8,114.8,0,0,1,468.51,899.64Zm6.95,18.27c1.69-3.65,3.6-7.31,5.65-10.88s4.3-7.17,6.57-10.41c4.06-.36,8.18-.55,12.32-.55s8.23.19,12.27.52c2.26,3.24,4.47,6.71,6.6,10.36s4,7.2,5.67,10.85c-1.72,3.66-3.6,7.31-5.65,10.88s-4.3,7.17-6.57,10.42c-4.06.35-8.18.54-12.32.54s-8.23-.19-12.27-.52c-2.26-3.24-4.47-6.7-6.6-10.36S477.18,921.56,475.46,917.91Zm48.7,13.8c1.25-2.18,2.42-4.39,3.54-6.57A114.8,114.8,0,0,1,531.46,936c-3.57.87-7.33,1.61-11.23,2.18C521.57,936.07,522.9,933.92,524.16,931.71Zm0-27.84c-1.25-2.18-2.59-4.31-3.93-6.38q5.82.85,11.18,2.15c-1,3.52-2.26,7.15-3.68,10.77C526.58,908.23,525.41,906.05,524.13,903.87ZM507.5,890.15c-2.46-.1-5-.19-7.5-.19s-5.1.06-7.58.19a105.71,105.71,0,0,1,7.5-8.72A114.37,114.37,0,0,1,507.5,890.15Zm-37.93-25a6.08,6.08,0,0,1,3.14-.71v0c5.64,0,14,4.5,22.9,12.71a129.42,129.42,0,0,0-11.26,13.6,129.07,129.07,0,0,0-17.34,3c-.63-2.72-1.09-5.37-1.42-7.9C464.31,875.43,465.89,867.33,469.57,865.18Zm-6.87,69.23c-2.7-.85-5.26-1.78-7.63-2.78-9.66-4.12-15.9-9.52-15.9-13.8s6.24-9.71,15.9-13.8c2.34-1,4.9-1.91,7.55-2.75a130.83,130.83,0,0,0,6.13,16.6A130.68,130.68,0,0,0,462.7,934.41Zm10.12,36.91a6.43,6.43,0,0,1-3.08-.73c-3.71-2.13-5.32-10.23-4.07-20.64.3-2.57.79-5.26,1.39-8a131.33,131.33,0,0,0,17.32,3,131.87,131.87,0,0,0,11.34,13.64C486.83,966.8,478.49,971.32,472.82,971.32Zm27.23-17.09a114.59,114.59,0,0,1-7.58-8.73c2.46.11,5,.19,7.5.19s5.1-.05,7.58-.19A105.91,105.91,0,0,1,500.05,954.23Zm30.38,16.25a6.08,6.08,0,0,1-3.14.71c-5.64,0-14-4.5-22.9-12.71a129.42,129.42,0,0,0,11.26-13.6,129.07,129.07,0,0,0,17.34-3,75.63,75.63,0,0,1,1.42,7.93C535.69,960.23,534.11,968.32,530.43,970.48Zm14.48-38.85c-2.35,1-4.91,1.9-7.56,2.75a131.52,131.52,0,0,0-6.13-16.61,129,129,0,0,0,6-16.52c2.7.85,5.26,1.77,7.66,2.78,9.66,4.12,15.9,9.52,15.9,13.8S554.56,927.54,544.91,931.63Z" stroke="#ffffff" stroke-width="16px"></path><circle cx="499.97" cy="917.83" r="12.46" stroke="#ffffff" stroke-width="24px"></circle><path d="M566.88,917.83c0-8.86-11.1-17.26-28.11-22.47,3.93-17.34,2.18-31.13-5.51-35.55a9.56,9.56,0,0,0-6.08-1.56c-8,.13-17.31,5.35-27.23,14.62C490,863.65,479,858.2,472.71,858.36c-3.16.09-4.37.52-6.16,1.56-7.67,4.41-9.38,18.18-5.43,35.47-17,5.23-28,13.61-28,22.44s11.1,17.26,28.11,22.47c-3.93,17.34-2.18,31.13,5.51,35.55a11.93,11.93,0,0,0,6.13,1.53c7.5,0,17.31-5.35,27.24-14.62,9.92,9.22,19.74,14.51,27.24,14.51a12.11,12.11,0,0,0,6.16-1.53c7.66-4.42,9.38-18.19,5.42-35.47C555.84,935.06,566.88,926.66,566.88,917.83Zm-39.72-53.49v0a6.32,6.32,0,0,1,3.1.71c3.71,2.13,5.32,10.23,4.07,20.64-.3,2.56-.79,5.26-1.39,8a133,133,0,0,0-17.32-3,132.78,132.78,0,0,0-11.34-13.63C513.16,868.87,521.49,864.35,527.16,864.34Zm-51.32,67.45q1.92,3.27,3.93,6.38c-3.87-.57-7.61-1.28-11.18-2.15,1-3.52,2.26-7.15,3.68-10.77C473.39,927.43,474.56,929.61,475.84,931.79Zm-7.33-32.15c3.57-.84,7.33-1.58,11.23-2.15-1.33,2.1-2.67,4.25-3.92,6.46s-2.43,4.36-3.55,6.54A114.8,114.8,0,0,1,468.51,899.64Zm6.95,18.27c1.69-3.65,3.6-7.31,5.65-10.88s4.3-7.17,6.57-10.41c4.06-.36,8.18-.55,12.32-.55s8.23.19,12.27.52c2.26,3.24,4.47,6.71,6.6,10.36s4,7.2,5.67,10.85c-1.72,3.66-3.6,7.31-5.65,10.88s-4.3,7.17-6.57,10.42c-4.06.35-8.18.54-12.32.54s-8.23-.19-12.27-.52c-2.26-3.24-4.47-6.7-6.6-10.36S477.18,921.56,475.46,917.91Zm48.7,13.8c1.25-2.18,2.42-4.39,3.54-6.57A114.8,114.8,0,0,1,531.46,936c-3.57.87-7.33,1.61-11.23,2.18C521.57,936.07,522.9,933.92,524.16,931.71Zm0-27.84c-1.25-2.18-2.59-4.31-3.93-6.38q5.82.85,11.18,2.15c-1,3.52-2.26,7.15-3.68,10.77C526.58,908.23,525.41,906.05,524.13,903.87ZM507.5,890.15c-2.46-.1-5-.19-7.5-.19s-5.1.06-7.58.19a105.71,105.71,0,0,1,7.5-8.72A114.37,114.37,0,0,1,507.5,890.15Zm-37.93-25a6.08,6.08,0,0,1,3.14-.71v0c5.64,0,14,4.5,22.9,12.71a129.42,129.42,0,0,0-11.26,13.6,129.07,129.07,0,0,0-17.34,3c-.63-2.72-1.09-5.37-1.42-7.9C464.31,875.43,465.89,867.33,469.57,865.18Zm-6.87,69.23c-2.7-.85-5.26-1.78-7.63-2.78-9.66-4.12-15.9-9.52-15.9-13.8s6.24-9.71,15.9-13.8c2.34-1,4.9-1.91,7.55-2.75a130.83,130.83,0,0,0,6.13,16.6A130.68,130.68,0,0,0,462.7,934.41Zm10.12,36.91a6.43,6.43,0,0,1-3.08-.73c-3.71-2.13-5.32-10.23-4.07-20.64.3-2.57.79-5.26,1.39-8a131.33,131.33,0,0,0,17.32,3,131.87,131.87,0,0,0,11.34,13.64C486.83,966.8,478.49,971.32,472.82,971.32Zm27.23-17.09a114.59,114.59,0,0,1-7.58-8.73c2.46.11,5,.19,7.5.19s5.1-.05,7.58-.19A105.91,105.91,0,0,1,500.05,954.23Zm30.38,16.25a6.08,6.08,0,0,1-3.14.71c-5.64,0-14-4.5-22.9-12.71a129.42,129.42,0,0,0,11.26-13.6,129.07,129.07,0,0,0,17.34-3,75.63,75.63,0,0,1,1.42,7.93C535.69,960.23,534.11,968.32,530.43,970.48Zm14.48-38.85c-2.35,1-4.91,1.9-7.56,2.75a131.52,131.52,0,0,0-6.13-16.61,129,129,0,0,0,6-16.52c2.7.85,5.26,1.77,7.66,2.78,9.66,4.12,15.9,9.52,15.9,13.8S554.56,927.54,544.91,931.63Z" fill="#61dafb"></path><circle cx="499.97" cy="917.83" r="12.46" fill="#61dafb"></circle></g><path d="M664.05,702.32c28.31-23,54.41-54.72,70.68-86.1-.06-.1-3.49,3.38-3.55,3.28S710.11,638.28,649.66,638c-76.3-.31-60.54-21.68-152.51-21.68-81.42,0-68.49,11.89-145.15,16.15-62.09,3.45-83.62-13-83.62-13l-.2.33a261.18,261.18,0,0,0,40.56,57.53c4.32,4.65,8.86,9.18,13.48,13.48a193.3,193.3,0,0,0,15.35,13c5.18,3.95,10.67,7.72,16.33,11.21,21.71,12,46.48,21.14,73.63,27.13,6.49,1.43,13,2.64,19.31,3.6,65.81,5.85,141.08,6.7,200.74-31.12C653.21,710.78,658.75,706.63,664.05,702.32Z" opacity="0.15"></path><circle cx="311.51" cy="659.14" r="4.18" fill="#592d3d"></circle><circle cx="338.51" cy="663.32" r="2.96" fill="#592d3d"></circle><circle cx="401.05" cy="707.98" r="2.96" fill="#592d3d"></circle><circle cx="506.83" cy="711.31" r="2.96" fill="#592d3d"></circle><circle cx="517.63" cy="704.5" r="2.96" fill="#592d3d"></circle><circle cx="578.33" cy="701.54" r="2.96" fill="#592d3d"></circle><circle cx="581.29" cy="683.15" r="2.96" fill="#592d3d"></circle><circle cx="391.69" cy="690.72" r="5.37" fill="#592d3d"></circle><circle cx="600.44" cy="707.45" r="2.09" fill="#592d3d"></circle><circle cx="642.96" cy="696.08" r="4.18" fill="#592d3d"></circle><circle cx="462.56" cy="724.04" r="4.18" fill="#592d3d"></circle><circle cx="642.96" cy="663.22" r="2.96" fill="#592d3d"></circle><circle cx="654.05" cy="673.06" r="2.96" fill="#592d3d"></circle><path d="M296.49,572.61V559.68a49.6,49.6,0,0,1,1.94-25.32,46,46,0,0,1,3.51-7.65C305.29,518,314.29,511,323.29,508c14-4,31-2,42,9,14,15,12,37,12.45,55.62" fill="none" stroke="#592d3d" stroke-linecap="round" stroke-miterlimit="10" stroke-width="12px"></path><path d="M623.31,573c-2.34-26.62,1.66-63.62,36.13-67.17a45,45,0,0,1,8.12,0A43.68,43.68,0,0,1,690,514.41c18,15,14,39,13.95,58.63" fill="none" stroke="#592d3d" stroke-linecap="round" stroke-miterlimit="10" stroke-width="12px"></path><line x1="446.66" y1="606.02" x2="542.53" y2="606.02" fill="none" stroke="#592d3d" stroke-linecap="round" stroke-miterlimit="10" stroke-width="12px"></line><rect x="290.23" y="414.02" width="439.24" height="64.15" fill="#EDD494"></rect><path d="M710,667.66q-4.71,5.82-9.71,11.37C697.79,681.8,702.87,677.91,710,667.66Zm15-316.55C694.5,296.7,641.5,259.24,580.22,242l-6.35-1.71c-22.7-6.28-46.62-7-71.32-7-26.69,0-52.46,2.74-76.77,10l-4.26,1.27C335.16,273.62,263.78,346.74,245.06,429.8,213,556.34,262.89,634,307.17,681.6c4.37,4.7-57.93-101.85-17.42-216,7.73-.29,20.24-.51,36.19-.67l15.5-50.61,17.44,50.38c27.4-.13,59.88-.15,93.88-.12l12.32-52.36L479,464.6c74.37.14,151.44.52,195.28.77l13.2-52.17,15,52.33,8.21.05C760.78,572,728.5,641.13,710,667.66A265.62,265.62,0,0,0,769.3,500C769.3,413.58,725,351.11,725,351.11Z" fill="#FEDC58"></path><path d="M325.14,464.92c.9-57.85,19.88-126.43,66.22-207.44h0q-4.07,1.88-8.06,3.88l-.59.29c-1.22.61-2.44,1.24-3.65,1.88l-1,.53q-5.64,3-11.13,6.23l-.9.53c-1.16.69-2.31,1.39-3.46,2.1l-.86.54q-5.37,3.35-10.56,6.93l-1.08.75c-1.08.76-2.16,1.52-3.23,2.29l-.65.47q-3.27,2.39-6.47,4.84l-.62.48c-1,.78-2,1.58-3,2.39l-1.18.94c-1,.81-2,1.62-3,2.45l0,0c-2.11,1.75-4.18,3.55-6.24,5.37l-1.14,1-2.69,2.45L320.53,305q-4.27,4-8.37,8.17l-1.37,1.41c-.8.82-1.59,1.64-2.37,2.47l-1.37,1.48Q305,320.77,303,323c-.46.51-.92,1-1.37,1.54-.71.81-1.41,1.63-2.11,2.45L298,328.8c-.68.81-1.36,1.62-2,2.44-.54.66-1.07,1.33-1.61,2-1.06,1.33-2.11,2.66-3.15,4-.55.7-1.09,1.4-1.62,2.11s-1.2,1.59-1.79,2.4l-1.59,2.18c-.56.78-1.13,1.55-1.68,2.33-.94,1.34-1.88,2.69-2.8,4.05-.5.73-1,1.48-1.48,2.22s-1.11,1.66-1.65,2.5-1,1.54-1.48,2.31-1.13,1.8-1.69,2.71c-.43.69-.86,1.38-1.28,2.07q-1.32,2.19-2.6,4.4c-.42.72-.82,1.44-1.23,2.16-.54.95-1.08,1.91-1.61,2.87-.4.73-.8,1.46-1.19,2.19-.64,1.19-1.27,2.39-1.89,3.59-.41.78-.81,1.56-1.21,2.34-.64,1.28-1.28,2.55-1.9,3.84-.34.69-.67,1.39-1,2.09-.52,1.09-1,2.19-1.54,3.29l-.91,2q-1.11,2.47-2.17,5c-.22.52-.43,1.05-.65,1.57-.53,1.27-1,2.54-1.56,3.82-.27.67-.53,1.34-.79,2-.49,1.26-1,2.53-1.45,3.8l-.61,1.65q-1,2.63-1.86,5.26l-.56,1.7q-.66,2-1.29,4c-.2.63-.4,1.27-.59,1.91q-.72,2.31-1.38,4.63c-.1.33-.2.66-.29,1q-.78,2.76-1.5,5.54l-.45,1.78c-.19.74-.37,1.49-.55,2.24-1.56,6.69-2.88,13.23-4,19.63-.1.66-.22,1.31-.32,2l-.24,1.52q-.45,2.93-.82,5.88c-.06.43-.11.87-.16,1.3-.2,1.59-.38,3.19-.55,4.79l-.18,1.81c-.17,1.68-.32,3.37-.45,5.06l-.09,1q-.23,3-.38,6.05c0,.53-.05,1.07-.08,1.6q-.11,2.36-.18,4.71c0,.59,0,1.18-.05,1.77,0,2.05-.07,4.11-.07,6.17v.1c0,2.22,0,4.42.08,6.62,0,.76.06,1.52.08,2.28.05,1.47.1,2.94.17,4.41.05.89.11,1.77.16,2.66.08,1.33.16,2.66.25,4l.24,2.83c.11,1.26.21,2.52.34,3.77.09,1,.21,1.94.31,2.91.14,1.21.27,2.43.42,3.64.12,1,.26,2,.39,2.95.16,1.18.33,2.37.5,3.55.15,1,.31,2,.47,3,.19,1.16.37,2.33.58,3.49.17,1,.35,2,.54,3,.21,1.15.43,2.3.66,3.44s.4,2,.61,3c.24,1.14.48,2.27.74,3.4s.45,2,.68,2.93c.27,1.13.54,2.25.82,3.36s.49,1.95.75,2.92.59,2.22.9,3.33c.26,1,.53,1.92.81,2.87.32,1.11.65,2.21,1,3.31s.57,1.89.87,2.84.71,2.19,1.07,3.28c.31.93.61,1.87.93,2.8.38,1.09.76,2.18,1.15,3.27l1,2.74c.41,1.09.83,2.18,1.25,3.27.34.89.68,1.79,1,2.68.44,1.09.89,2.19,1.34,3.28.36.86.71,1.73,1.08,2.59.48,1.12,1,2.22,1.46,3.33.36.83.72,1.65,1.09,2.47.52,1.16,1.07,2.3,1.61,3.44.36.77.71,1.54,1.08,2.3.6,1.26,1.23,2.5,1.86,3.75l.95,1.9q2.88,5.61,6,11.07c.36.62.73,1.23,1.09,1.84.7,1.2,1.39,2.4,2.11,3.58.44.72.89,1.42,1.33,2.14.66,1.07,1.32,2.14,2,3.19.48.76,1,1.5,1.47,2.24.65,1,1.31,2,2,3,.51.76,1,1.52,1.56,2.28.66,1,1.32,1.92,2,2.88.54.77,1.1,1.53,1.65,2.3s1.34,1.85,2,2.77,1.15,1.53,1.72,2.29l2.07,2.7c.59.76,1.19,1.51,1.79,2.26s1.41,1.76,2.12,2.63,1.23,1.49,1.85,2.23,1.44,1.72,2.17,2.57l1.91,2.2,2.22,2.5c.65.73,1.31,1.44,2,2.16.4.44.81.87,1.22,1.31,2.37,1.37-57.48-103.69-17.57-216.15C297.34,465.29,309.57,465.08,325.14,464.92Z" fill="#EDBF2E"></path><path d="M420.82,134.59A71.58,71.58,0,0,1,433,112.84c1.37-1.59,2.72-3.21,4.16-4.74s3-3,4.53-4.41,3.21-2.73,4.88-4,3.41-2.5,5.17-3.65,3.6-2.21,5.47-3.19l2.82-1.43a31,31,0,0,1,2.86-1.35c2-.76,3.89-1.62,5.89-2.29s4-1.32,6-1.81a72,72,0,0,1,24.86-2,112.32,112.32,0,0,0-24,5c-1,.26-1.9.7-2.85,1l-2.85,1c-1.88.73-3.69,1.65-5.54,2.45s-3.58,1.85-5.38,2.77-3.44,2.09-5.17,3.12-3.33,2.28-5,3.41-3.15,2.52-4.76,3.75-3,2.68-4.53,4l-4.28,4.31A110.47,110.47,0,0,0,420.82,134.59Z" fill="#ffffff"></path><path d="M520.11,249.17a367.15,367.15,0,0,0-42.48,4.93c-3.49.68-7,1.42-10.44,2.06s-6.9,1.61-10.35,2.41l-10.27,2.72c-3.39,1-6.76,2.08-10.14,3.11A312.8,312.8,0,0,0,397,280.14a347.55,347.55,0,0,0-37.25,21A183.48,183.48,0,0,1,394.83,276a218.27,218.27,0,0,1,39.76-17.3c3.47-1,6.93-2.08,10.42-3.05s7-1.82,10.54-2.59,7.1-1.41,10.66-2,7.15-1.08,10.74-1.52A189.39,189.39,0,0,1,520.11,249.17Z" fill="#ffffff"></path><path d="M529.83,233.83a70.16,70.16,0,0,1,15.44-1.92c2.56-.06,5.11,0,7.67.13s5.12.3,7.68.52a138.69,138.69,0,0,1,15.35,2.2A95.37,95.37,0,0,1,591.05,239l-3.89,11.35c-4.62-1.38-9.25-2.78-13.95-4.07s-9.45-2.51-14.25-3.71l-7.25-1.76c-2.43-.57-4.87-1.15-7.3-1.81A85.14,85.14,0,0,1,529.83,233.83Z" fill="#592d3d"></path><path d="M710,667.66q-4.71,5.82-9.71,11.37C697.79,681.8,702.87,677.91,710,667.66Zm15-316.55C694.5,296.7,641.5,259.24,580.22,242l-6.35-1.71c-22.7-6.28-46.62-7-71.32-7-26.69,0-52.46,2.74-76.77,10l-4.26,1.27C335.16,273.62,263.78,346.74,245.06,429.8,213,556.34,262.89,634,307.17,681.6c4.37,4.7-57.93-101.85-17.42-216,7.73-.29,20.24-.51,36.19-.67l15.5-50.61,17.44,50.38c27.4-.13,59.88-.15,93.88-.12l12.32-52.36L479,464.6c74.37.14,151.44.52,195.28.77l13.2-52.17,15,52.33,8.21.05C760.78,572,728.5,641.13,710,667.66A265.62,265.62,0,0,0,769.3,500C769.3,413.58,725,351.11,725,351.11Z" fill="none" stroke="#592d3d" stroke-miterlimit="10" stroke-width="12px"></path><path d="M284.48,462.85c.18-.75.33-1.32.53-1.94s.4-1.2.62-1.78c.46-1.17,1-2.31,1.51-3.42a48.48,48.48,0,0,1,3.85-6.42,37.51,37.51,0,0,1,4.88-5.75,17,17,0,0,1,7-4,31,31,0,0,1-.87,7.68c-.28,1.14-.59,2.25-.93,3.32l-1,3.25q-1,3.23-2,6.39c-.33,1.06-.68,2.09-1,3.13-.17.51-.37,1-.56,1.53s-.39,1-.56,1.4Z" fill="#592d3d"></path><path d="M710.68,459.58a35,35,0,0,1,6.23.06,60.73,60.73,0,0,1,6.24.86c1,.2,2.08.4,3.12.64a25.74,25.74,0,0,1,3.11.86,18.53,18.53,0,0,1,6.24,3.58,18.74,18.74,0,0,1-6.24,3.59,25.68,25.68,0,0,1-3.11.85c-1,.25-2.08.45-3.12.65q-3.12.58-6.24.86a35,35,0,0,1-6.23.05Z" fill="#592d3d"></path><path d="M444.84,452.07a132.29,132.29,0,0,1,1.49-14.25c.72-4.7,1.6-9.37,2.61-14s2.15-9.25,3.44-13.83A132.09,132.09,0,0,1,457,396.4a131.77,131.77,0,0,1-1.5,14.25q-1.08,7.05-2.61,14t-3.44,13.83A137,137,0,0,1,444.84,452.07Z" fill="#ffffff"></path><path d="M668,452.07a134.88,134.88,0,0,1,1.49-14.25q1.09-7.05,2.61-14T675.49,410a132.09,132.09,0,0,1,4.57-13.58,131.76,131.76,0,0,1-1.49,14.25q-1.1,7.05-2.61,14c-1,4.64-2.16,9.25-3.45,13.83A134.48,134.48,0,0,1,668,452.07Z" fill="#ffffff"></path><path d="M600.89,460.57a318.14,318.14,0,0,1,33.51-6.65l-2.66.35c13.18-1.74,26.54-2.25,39.75-.48l-2.66-.36c3.27.46,6.54,1,9.82,1.42l-2.66-.36a221,221,0,0,1,29.48,6.11c5,1.39,11.1-1.73,12.3-7a10.19,10.19,0,0,0-7-12.3,239.21,239.21,0,0,0-34.59-6.78l2.66.36a143,143,0,0,0-33.44-1.95,235.08,235.08,0,0,0-33.09,4.55c-5.62,1.13-11.2,2.43-16.76,3.8-5.08,1.25-8.62,7.26-7,12.3a10.19,10.19,0,0,0,12.3,7Z" fill="#592d3d"></path><path d="M286.14,460.6a202.56,202.56,0,0,1,29.25-6.19l-2.66.36a195.53,195.53,0,0,1,51.38.08l-2.66-.35a218.94,218.94,0,0,1,29.45,6.1c5,1.4,11.1-1.73,12.3-7a10.19,10.19,0,0,0-7-12.3A227.26,227.26,0,0,0,352,433.6a208.27,208.27,0,0,0-71.22,7.71,10.39,10.39,0,0,0-6,4.6,10.2,10.2,0,0,0-1,7.7c1.65,5.11,6.91,8.54,12.3,7Z" fill="#592d3d"></path><circle cx="382.91" cy="594.66" r="33.84" fill="#ffffff" opacity="0.2"></circle><path d="M375.87,631l43.31-41.74a147.47,147.47,0,0,0-7.57-12.9l-45.87,44.21C367.64,621.9,373.72,630.08,375.87,631Z" fill="#ffffff" opacity="0.4"></path><circle cx="382.91" cy="594.66" r="33.84" fill="none" stroke="#592d3d" stroke-miterlimit="10" stroke-width="12px"></circle><path d="M378,580.47c1.22,3.83-3.5,6.78-7,7.37-3.54,0-5.9-2.36-7.08-5.31-.59-2.95,0-5.9,2.36-7.67,2.95-1.18,7.08-2.36,9.7.67A6.85,6.85,0,0,1,378,580.47Z" fill="#ffffff"></path><path d="M384.32,578.21a2.29,2.29,0,0,1-4.49.19c0-1.77.59-2.36,2.27-2.42a2.22,2.22,0,0,1,2.22,2.22Z" fill="#ffffff"></path><circle cx="615.2" cy="594.66" r="33.84" fill="#ffffff" opacity="0.2"></circle><path d="M610.12,628.11l38.54-38.54c-.21-1.37-5.91-8.1-6.29-9.44l-41.72,41.74C602,622.24,608.75,627.91,610.12,628.11Z" fill="#ffffff" opacity="0.4"></path><circle cx="615.2" cy="594.66" r="33.84" fill="none" stroke="#592d3d" stroke-miterlimit="10" stroke-width="12px"></circle><path d="M607.36,579.91c1,3.25-3,5.75-6,6.25-3,0-5-2-6-4.5-.5-2.5,0-5,2-6.5,2.5-1,6-2,8.23.57A5.85,5.85,0,0,1,607.36,579.91Z" fill="#ffffff"></path><path d="M612.7,578a1.94,1.94,0,0,1-3.8.16c0-1.5.5-2,1.92-2A1.88,1.88,0,0,1,612.7,578Z" fill="#ffffff"></path><path d="M416.74,594.66q83.68-30,164.63,0" fill="none" stroke="#592d3d" stroke-miterlimit="10" stroke-width="12px"></path><path d="M615.2,634.5A39.9,39.9,0,0,1,575.6,599c-50-17.65-101.46-17.64-153.1,0a39.81,39.81,0,0,1-50.92,33.84,38,38,0,0,0,54.51-29.91c49.22-16.86,98.28-16.88,145.93,0a38,38,0,0,0,54.51,30A40,40,0,0,1,615.2,634.5Z" opacity="0.15"></path></g></svg>